inDegrees=no
num_controls=7
num_derivatives=13
num_iterations=72
num_multipliers=7
num_parameters=0
num_slacks=7
num_states=26
objective=0.333910
objective_accelerations=0.037201
objective_balance=0.001337
objective_effort=0.027286
objective_height=0.266611
objective_ligament=0.001475
solver_duration=738.266582
status=Solve_Succeeded
success=true
DataType=double
version=3
OpenSimVersion=4.5
endheader
time	/jointset/ground_pelvis/pelvis_tilt/value	/jointset/ground_pelvis/pelvis_tx/value	/jointset/ground_pelvis/pelvis_ty/value	/jointset/hip_r/hip_flexion_r/value	/jointset/hip_r/hip_adduction_r/value	/jointset/hip_r/hip_rotation_r/value	/jointset/back/lumbar_extension/value	/jointset/patellofemoral_r/patellar_flexion_r/value	/jointset/knee_r/knee_flexion_r/value	/jointset/knee_r/knee_adduction_r/value	/jointset/knee_r/knee_rotation_r/value	/jointset/ankle_r/ankle_angle_r/value	/jointset/subtalar_r/subtalar_angle_r/value	/jointset/ground_pelvis/pelvis_tilt/speed	/jointset/ground_pelvis/pelvis_tx/speed	/jointset/ground_pelvis/pelvis_ty/speed	/jointset/hip_r/hip_flexion_r/speed	/jointset/hip_r/hip_adduction_r/speed	/jointset/hip_r/hip_rotation_r/speed	/jointset/back/lumbar_extension/speed	/jointset/patellofemoral_r/patellar_flexion_r/speed	/jointset/knee_r/knee_flexion_r/speed	/jointset/knee_r/knee_adduction_r/speed	/jointset/knee_r/knee_rotation_r/speed	/jointset/ankle_r/ankle_angle_r/speed	/jointset/subtalar_r/subtalar_angle_r/speed	/forceset/tau_hip_flexion_r	/forceset/tau_hip_adduction_r	/forceset/tau_hip_rotation_r	/forceset/tau_knee_flexion_r	/forceset/tau_ankle_angle_r	/forceset/tau_subtalar_angle_r	/forceset/tau_lumbar_extension	lambda_cid13_p0	lambda_cid14_p0	lambda_cid14_p1	lambda_cid14_p2	lambda_cid14_p3	lambda_cid14_p4	lambda_cid14_p5	/jointset/ground_pelvis/pelvis_tilt/accel	/jointset/ground_pelvis/pelvis_tx/accel	/jointset/ground_pelvis/pelvis_ty/accel	/jointset/hip_r/hip_flexion_r/accel	/jointset/hip_r/hip_adduction_r/accel	/jointset/hip_r/hip_rotation_r/accel	/jointset/back/lumbar_extension/accel	/jointset/patellofemoral_r/patellar_flexion_r/accel	/jointset/knee_r/knee_flexion_r/accel	/jointset/knee_r/knee_adduction_r/accel	/jointset/knee_r/knee_rotation_r/accel	/jointset/ankle_r/ankle_angle_r/accel	/jointset/subtalar_r/subtalar_angle_r/accel	gamma_cid13_p0	gamma_cid14_p0	gamma_cid14_p1	gamma_cid14_p2	gamma_cid14_p3	gamma_cid14_p4	gamma_cid14_p5
1	-0.2838664300493783	-0.009334997280554811	0.6297202434214041	1.479323438780723	-0.2379864938004314	-0.08647110299602784	-0.7853971343006555	1.512131423065922	1.512131423066083	-0.1745051595973679	0.1730609590391816	0.436236141112917	0.17636230118484	0.06932861444181247	0.006552751944011316	0.01646812488762255	-0.1034438281234486	-0.001511116082872334	0.0008634407602977538	0.0001013000184773628	-0.01906299934132924	-0.01906299934132888	0.008148087506234228	2.86030044364212e-05	0.01457442422040788	0.004646356934911672	-0.3669394243017075	0.04909525661980003	0.007088107370150649	-0.4321790078506585	-0.0473191300620197	0.0001192707633141207	0.3762900086899805	-0.04101735720363908	-67.66959028670965	-16.59434087313739	8.547635717772852	8.546746645135913	-774.5542329966709	52.39122229573908	1.4680842888821	0.167729765685433	1.889035625125704	-5.769672500449365	0.2209766117914623	-0.3415458751741195	0.0004325073090026242	-5.116833702839538	-5.116833702839576	1.022014614019245	0.02590228916429157	-1.005953613834516	-0.09341107877904047	1.558940174444796e-09	3.02612616961369e-09	1.545259992945271e-08	1.237997836711396e-08	-3.671317563804365e-09	-4.286129130434562e-09	2.942541511357072e-08
1.01	-0.2831008099094921	-0.009260971849813331	0.629979137220546	1.478001851966479	-0.2379907005877456	-0.08647678870600731	-0.7853936890943332	1.511685621832654	1.511685621832838	-0.1743697453434223	0.1730623514164518	0.436331713635739	0.1764038157906869	0.08375714553607067	0.008267477183181292	0.03529963526086124	-0.1608328899619728	0.0006615793425623589	-0.001984885306851649	0.0007503410129244146	-0.07007348194557102	-0.07007348194557048	0.01895445578622814	0.0002561213216016301	0.004559207092285535	0.003650330504200872	-0.3674773675141822	0.04911722028032418	0.007134034212240454	-0.4319351797972857	-0.04766237477724022	0.0001487791257798106	0.3770886570092359	-0.04101383271648394	-67.78990829958514	-16.59348260313375	8.537093750684731	8.399249101179036	-774.8771610664342	52.38788283012034	1.424499448180692	0.1756139369658085	1.878556572291081	-5.717424319686759	0.2141960532744425	-0.2541174271381476	0.1215298590429559	-5.089592133378698	-5.089592133378658	1.112901010976017	0.02212892392766421	-0.9964367697051417	-0.1036196320710405	6.941798076276274e-09	1.07708159936796e-08	4.722854064202815e-08	5.438398241628836e-08	-7.031305932604771e-09	-1.102769891214672e-08	1.015780977120656e-07
1.02	-0.2821920520729654	-0.009169345159893552	0.6304260156891939	1.476107594275021	-0.2379734244117344	-0.08651048596758991	-0.7853788754853173	1.510730428454511	1.510730428454719	-0.1741256767914699	0.1730662094410796	0.4363277077859941	0.1764351858908559	0.09795615376964725	0.01007300377967054	0.05406505878881845	-0.2179780035658128	0.002785476582196546	-0.004738869560112449	0.002374980548580915	-0.1209414283163009	-0.1209414283163	0.0298789471056845	0.0005217324761669336	-0.005341250331997335	0.002617455799333855	-0.3680153107266689	0.04913918394084597	0.007179961054338488	-0.4316913517439123	-0.04800561949245934	0.000178287488241618	0.37788730532848	-0.04101661570520137	-67.91729722014101	-16.58786184107075	8.51893799446986	8.248755880312748	-775.3241650765937	52.42510627805932	1.422179716745741	0.1858900371493392	1.875818256069415	-5.720882853512561	0.2112169746313483	-0.3226775123964208	0.1955522155505844	-5.088326456137128	-5.088326456137144	1.045639221911715	0.03352085664431283	-0.9830016730665154	-0.1007807336102527	1.289130766051319e-08	1.925523015298907e-08	7.938648692910987e-08	9.911588294733649e-08	-1.125159971969216e-08	-1.858684751693307e-08	1.779997891638792e-07
1.03	-0.2811425566381915	-0.009059230368241975	0.6310602033532313	1.473643253067415	-0.2379351420874886	-0.08657134150336764	-0.7853428808783131	1.509267095487026	1.509267095487036	-0.1737718142691854	0.1730729215033081	0.436225039372621	0.1764559472280173	0.1118922409356171	0.01196303671129401	0.07275982146317683	-0.2748328758530532	0.00486422563134088	-0.007422805021135064	0.004994777976986996	-0.1717184973945752	-0.1717184973945781	0.04091145495958422	0.0008264738607695048	-0.01519649535878637	0.001519533787488193	-0.3683501559367779	0.04918843831453166	0.007295574318957181	-0.4312967036219064	-0.04839533948589383	0.0001857173839456577	0.3785547518265001	-0.04103505215877364	-68.05369506957506	-16.59124550612614	8.499749102293528	8.177021548629414	-775.6109321489513	52.43436951499793	1.371725032019591	0.1925191235538535	1.86440211306935	-5.659179786193138	0.2052078989463067	-0.2398250199774512	0.3208190745764731	-5.071400771143844	-5.071400771144413	1.13473775403942	0.02985872313452988	-0.9873950414262418	-0.1165550082929422	1.884659940477465e-08	2.774719251980103e-08	1.11548331232258e-07	1.438756191567711e-07	-1.548067213349677e-08	-2.61543387627712e-08	2.544650419305226e-07
1.04	-0.279955219968658	-0.008929823406797193	0.6318809580120024	1.470612085062959	-0.2378762714669737	-0.08665875108516206	-0.785275563183386	1.507296191101263	1.507296191101081	-0.1733070904309822	0.1730828625681339	0.4360236966841788	0.176465277930396	0.1255244007214643	0.01393143773831099	0.09137845773554418	-0.3313433629348304	0.006903135836100107	-0.01004967876304833	0.008639598129024935	-0.2224557119716999	-0.2224557119717067	0.0520512102898979	0.001167532996023174	-0.02507610534322042	0.0003313288427947631	-0.3686850011469138	0.04923769268821124	0.007411187583608114	-0.4309020554998972	-0.04878505947932513	0.0001931472796391543	0.3792221983244949	-0.04105983569201779	-68.19717349777139	-16.58980103882783	8.472859051208665	8.100902505057892	-776.0233705435762	52.48428601183823	1.361394240721179	0.2015636562280604	1.86059297567121	-5.652005812419896	0.2032492057543218	-0.3112651685745577	0.4005567602768467	-5.080355555907192	-5.080355555907247	1.067088717194506	0.04078440677453282	-0.9878746645954823	-0.1188373201797955	2.424401629853053e-08	3.626203583913695e-08	1.409144784496266e-07	1.861078951606664e-07	-2.097517728312899e-08	-3.192199212056988e-08	3.23737204543427e-07
1.05	-0.2786329621646725	-0.008780331760383588	0.6328874434054892	1.467017597215178	-0.2377972204626104	-0.08677220406850285	-0.785166812685225	1.50481823890355	1.504818238903495	-0.1727305200248606	0.173096378927221	0.435723376411252	0.1764622293305896	0.1388855096523259	0.01598081889970007	0.1098982150970035	-0.3874877139701573	0.008899939145679681	-0.01263082096378413	0.01327075867752886	-0.2731153070380112	-0.2731153070380168	0.0632780142278471	0.001537888100609181	-0.03499810792093883	-0.0009599748086069318	-0.3686953383289549	0.0492848359490127	0.007577002709589623	-0.4301636407611782	-0.04916907027796725	0.0001880197839923684	0.3796237971612849	-0.04109268858825922	-68.3110877431986	-16.58451174925769	8.440648120121926	8.047692956925911	-775.9912384550685	52.48342745290807	1.317230403956857	0.2087090916652383	1.844598652295329	-5.58566753759906	0.196856313842887	-0.2300051815733981	0.5184342780835974	-5.055854381177222	-5.055854381177033	1.152741851866973	0.03554455147912103	-0.9958859848733473	-0.1370619889314834	2.962399960320812e-08	4.477759418823924e-08	1.701932601330646e-07	2.282611880331385e-07	-2.650922720575582e-08	-3.763340054436733e-08	3.927845830890272e-07
1.06	-0.2771783410344403	-0.008609929553241937	0.6340785126797729	1.46286366229934	-0.2376984093410948	-0.08691116176100347	-0.7850069428663842	1.501834272175336	1.501834272175413	-0.1720412284554086	0.1731136755351871	0.4353235315264437	0.1764457106740068	0.1519970659707146	0.01811354988391984	0.1282952338949424	-0.4432327765458845	0.01085515926658584	-0.01515062059453215	0.01886346226388928	-0.3236586180716874	-0.3236586180716921	0.07459544295667164	0.001923582772333741	-0.04498102771918996	-0.002362682512452868	-0.3687056755110127	0.04933197920980752	0.007742817835606232	-0.4294252260224557	-0.04955308107660828	0.0001828922883329069	0.380025395998059	-0.04113201336829204	-68.43216372335144	-16.57433556901268	8.40064331674624	7.989476458732716	-776.0872222541154	52.52327208064886	1.311483718226573	0.2182336207942097	1.836045262967116	-5.57214812049996	0.1949325680196374	-0.2989966545770034	0.5928653678481036	-5.057098749380169	-5.057098749380273	1.085213675369577	0.04385232020224244	-1.000058108702011	-0.1411181306686383	3.438226156609102e-08	5.18579209442407e-08	1.957563600415011e-07	2.662797739781829e-07	-3.050083756804874e-08	-4.280761474952269e-08	4.523645572616373e-07
1.07	-0.275593782186681	-0.00841775188844091	0.6354528715725238	1.458154328978342	-0.2375802757268768	-0.08707512206226836	-0.7847864584920884	1.498345555722115	1.49834555572211	-0.1712384270133558	0.1731349108858056	0.4348235293766186	0.1764145602348314	0.1648770369784067	0.02033898018445811	0.1465491841087665	-0.4985589066718918	0.01276309799132073	-0.01763247833427732	0.02538526526198957	-0.3740546007852182	-0.3740546007852193	0.08597723027674414	0.002323518203638405	-0.05503196768283251	-0.003889735888482933	-0.3682991809069402	0.0493385584116792	0.007972265746284199	-0.4285124884045882	-0.04966135361342001	0.0001444367707716838	0.3801101231040105	-0.04117813595501354	-68.43784608327337	-16.55980640583462	8.361518100366787	7.855049005648065	-775.7589778122266	52.52949136153521	1.270615298340986	0.2272403635556102	1.81595615520162	-5.501587358097826	0.1874938928524145	-0.2214104049487673	0.7046156656943242	-5.0263451525399	-5.026345152539305	1.166511149151928	0.03814958684196171	-1.00949556819358	-0.1617777654954178	3.910745324483589e-08	5.886190559422613e-08	2.211218173023312e-07	3.040784287036832e-07	-3.44104032728771e-08	-4.795325479411197e-08	5.114409460952585e-07
